PathFileType	4	(X/Y/Z)	s03c0302.trc
DataRate	CameraRate	NumFrames	NumMarkers	Units	OrigDataRate	OrigDataStartFrame	OrigNumFrames
200	200	5	52	mm	200	500	2000
Frame#	Time	racr			lacr			c7			jug			rlel			rdr			llel			ldr			s2			lic			ric			lasi			rasi			rpsi			lpsi			rgt			lgt			rth1			rth2			rth3			rth4			rlfc			rmfc			rsh1			rsh2			rsh3			rsh4			rlmal			rmmal			rcal			rtoe			rmt5			rmt1			lth1			lth2			lth4			lth3			llfc			lmfc			lsh1			lsh2			lsh3			lsh4			llmal			lmmal			lcal			ltoe			lmt1			lmt5			SBIKE			LBIKE			RBIKE			
		X1	Y1	Z1	X2	Y2	Z2	X3	Y3	Z3	X4	Y4	Z4	X5	Y5	Z5	X6	Y6	Z6	X7	Y7	Z7	X8	Y8	Z8	X9	Y9	Z9	X10	Y10	Z10	X11	Y11	Z11	X12	Y12	Z12	X13	Y13	Z13	X14	Y14	Z14	X15	Y15	Z15	X16	Y16	Z16	X17	Y17	Z17	X18	Y18	Z18	X19	Y19	Z19	X20	Y20	Z20	X21	Y21	Z21	X22	Y22	Z22	X23	Y23	Z23	X24	Y24	Z24	X25	Y25	Z25	X26	Y26	Z26	X27	Y27	Z27	X28	Y28	Z28	X29	Y29	Z29	X30	Y30	Z30	X31	Y31	Z31	X32	Y32	Z32	X33	Y33	Z33	X34	Y34	Z34	X35	Y35	Z35	X36	Y36	Z36	X37	Y37	Z37	X38	Y38	Z38	X39	Y39	Z39	X40	Y40	Z40	X41	Y41	Z41	X42	Y42	Z42	X43	Y43	Z43	X44	Y44	Z44	X45	Y45	Z45	X46	Y46	Z46	X47	Y47	Z47	X48	Y48	Z48	X49	Y49	Z49	X50	Y50	Z50	X51	Y51	Z51	X52	Y52	Z52	
500	2.5000	666.728180	1490.247184	-90.223100	635.425204	1497.798855	-426.543228	581.696822	1599.837940	-251.966993	622.818103	1434.295656	-254.453472	641.422664	1202.745661	-14.703226	771.443371	941.632258	-58.793402	640.201315	1214.060676	-482.032148	766.919592	941.116396	-428.199912	87.969510	1272.756672	-207.813262	258.090673	1292.769429	-401.390698	267.511667	1322.661354	-40.677352	279.214352	1224.726745	-357.134382	300.645624	1255.902854	-85.832733	115.512788	1327.831752	-169.381963	118.130366	1319.270902	-251.261348	230.114493	1228.324218	-12.180397	178.953814	1159.521442	-397.400934	348.529106	1129.814727	5.537570	434.149061	1106.662219	1.094809	496.885424	1047.584721	-1.062205	449.458595	1135.522879	-16.660633	584.762044	951.810727	-24.116389	584.300651	934.155444	-151.471163	468.586428	832.278759	-8.408183	416.923785	763.455648	-30.169574	336.381762	727.136600	-33.368833	435.848302	745.493643	-57.191401	229.535484	652.109063	-56.912671	256.254117	654.348390	-145.404274	152.975326	656.397945	-95.376408	379.846843	446.838381	-127.854968	287.805519	510.401458	-47.704944	306.970377	510.920920	-162.229601	204.483969	1012.240404	-416.646000	239.010526	932.598225	-423.769099	275.269045	938.855845	-425.103158	231.865425	844.661698	-411.100022	276.523908	725.695253	-390.292574	290.828212	707.557243	-270.818849	218.109323	568.182709	-422.232320	224.053960	483.498831	-412.617623	184.898169	402.241272	-410.634120	258.787683	477.781977	-395.240755	152.738424	280.392739	-398.785797	219.043450	293.148222	-315.431456	86.274645	262.655710	-354.235618	364.329146	123.377966	-363.970139	279.759202	163.255589	-317.480330	244.284682	154.930844	-433.812051	-217.144770	944.489838	-235.175181	-11.898025	80.862968	-435.581996	-11.921477	81.277784	-35.229522	
501	2.5050	666.174590	1491.524024	-89.094941	636.760729	1497.644053	-425.651353	582.442170	1601.010602	-251.520760	622.953393	1435.578749	-253.388963	641.102977	1203.743881	-15.387733	771.662074	942.434892	-59.060361	642.116439	1214.209007	-481.473299	767.463506	940.563321	-428.196386	87.717210	1275.962430	-207.989201	258.150255	1295.515262	-400.043294	267.152008	1325.875114	-41.147609	278.811283	1227.812203	-357.554979	300.111586	1258.513151	-86.363219	115.068971	1331.202401	-169.797678	117.889307	1322.043836	-251.803247	230.201325	1231.878433	-12.701194	177.938728	1162.136163	-397.421324	348.498136	1133.290505	4.855541	433.996777	1109.784668	0.016912	496.425340	1050.384970	-2.620339	449.289932	1138.441289	-18.101076	584.773589	955.007245	-26.944289	584.052393	937.539924	-154.378524	470.283213	833.784832	-10.597197	419.387221	764.245439	-31.975282	339.269096	726.883203	-34.411896	438.315826	746.757057	-59.099658	233.369828	650.856236	-56.957545	259.216829	653.097690	-145.661366	156.051948	653.439465	-95.129609	387.715187	449.107025	-128.049340	294.315719	510.677993	-47.782973	313.354136	511.625970	-162.225071	204.314389	1014.816586	-416.965083	239.068571	935.339491	-424.200110	275.284851	941.690299	-425.502162	232.103890	847.303016	-412.033272	276.848328	728.042770	-391.771071	291.782401	709.989785	-272.246341	216.634891	571.361342	-423.525219	222.344621	486.416840	-413.582019	182.777894	405.392767	-411.244801	257.145149	480.577734	-396.512917	150.321241	284.036889	-399.226565	215.876735	294.607209	-314.916514	83.810664	268.485430	-354.112122	357.252123	120.682888	-363.776503	273.971826	163.073665	-317.342293	238.290685	155.904098	-433.588131	-217.127508	944.560088	-235.074120	-11.898577	80.929652	-435.593154	-11.700882	81.029995	-35.289919	
502	2.5100	665.639828	1492.872831	-88.041846	637.966768	1497.592856	-424.730392	583.073239	1602.028854	-251.191473	623.069362	1436.805896	-252.177958	640.790902	1204.799023	-16.168550	771.822597	943.359872	-59.567638	643.707789	1214.365008	-480.866654	767.984291	939.973036	-428.156170	87.389784	1279.351183	-208.028665	257.711052	1298.412052	-400.169735	266.537567	1329.031290	-41.647025	278.354485	1230.721996	-357.757059	298.799788	1261.820021	-87.832970	114.659852	1334.853566	-170.028111	117.645216	1324.902353	-252.866584	230.206554	1235.694211	-13.159236	177.008847	1164.901003	-397.361060	348.234164	1136.629978	4.247578	433.567095	1112.515900	-1.092364	495.518223	1052.693716	-4.455121	448.975469	1141.187968	-19.302282	584.522713	957.917251	-29.681137	583.609255	940.865363	-157.356112	472.067072	835.090856	-13.052584	421.626520	764.715849	-33.744949	341.889540	726.581880	-35.195351	440.695368	747.470787	-59.877746	237.018691	648.923214	-56.616949	262.192812	651.361998	-145.877145	159.033623	649.725483	-94.799608	395.545876	451.190047	-128.199106	300.818862	510.408925	-47.765328	319.853883	512.087270	-161.407281	204.404426	1017.585101	-417.341665	239.536927	938.241185	-424.694827	275.701525	944.801407	-425.937445	232.924925	850.139017	-413.002993	277.674416	730.519175	-393.429318	293.057349	712.780630	-273.577491	215.733241	574.433714	-424.649191	221.008200	489.433791	-414.794861	180.936073	408.716770	-412.080167	255.918368	483.321356	-397.929912	148.065628	287.862370	-399.954621	212.768136	296.086374	-314.843628	81.593827	274.625630	-354.331177	349.907512	118.267721	-363.368166	268.148691	163.222552	-317.379281	232.311954	157.024847	-433.365881	-217.116862	944.615194	-234.948794	-11.903818	80.970655	-435.575982	-11.700797	81.053410	-35.278213	
503	2.5150	665.076933	1494.107292	-86.865877	639.065210	1497.542269	-423.826230	583.608972	1603.191031	-250.844737	622.924991	1438.036968	-251.116072	640.402346	1205.959636	-16.864499	772.109648	944.253496	-59.701374	645.120781	1214.525451	-480.219685	768.557152	939.583993	-428.350840	86.993501	1282.712700	-208.103716	257.057150	1301.149285	-400.145975	265.826279	1332.341352	-42.118960	277.789683	1233.649562	-358.168217	297.965014	1264.681976	-88.252438	114.437087	1338.453575	-170.613875	117.648738	1327.394368	-253.362778	230.042328	1239.534794	-13.647481	176.119817	1167.763073	-397.224865	349.209725	1140.076961	4.495256	432.935867	1115.043996	-2.084940	494.406446	1054.675586	-6.032743	448.422221	1143.622385	-20.487617	583.980232	960.558507	-32.386026	582.834207	943.965329	-160.335078	473.275165	836.127126	-15.243653	423.751928	765.000780	-35.463141	344.816718	725.512351	-36.343819	442.726368	747.941254	-61.352728	240.436203	646.351039	-56.486451	265.149865	649.104703	-145.965877	162.094774	645.596905	-94.400027	403.304569	453.019314	-128.412413	307.186760	509.855083	-47.796020	326.083447	512.098951	-161.387204	204.846437	1020.323701	-417.812137	240.450707	941.257344	-425.228276	276.563978	948.006917	-426.350155	234.250417	853.037294	-414.037474	279.032688	733.202333	-395.252362	294.895689	715.589663	-275.271249	215.335685	577.648111	-426.085899	220.147218	492.673324	-416.266734	179.469068	412.197498	-413.216826	255.069307	486.273321	-399.671901	146.127794	291.888405	-401.054965	212.343035	300.836309	-320.537914	79.632139	281.011338	-354.774456	342.033328	114.406525	-360.605301	262.344220	163.624425	-317.484401	226.354922	158.244364	-433.188255	-217.135239	944.635061	-234.826543	-11.907124	80.959005	-435.624473	-11.708488	81.075044	-35.260708	
504	2.5200	664.508177	1495.390610	-85.820890	639.964657	1497.388575	-422.899425	584.037507	1604.349214	-250.476406	622.792055	1439.240848	-249.948939	640.015294	1207.189310	-17.531043	772.250903	945.306051	-60.190111	646.461464	1214.637805	-479.521120	769.034052	939.049337	-428.382950	86.378752	1286.045817	-208.308031	256.390362	1303.834594	-400.313765	264.951400	1335.635763	-42.510119	277.188478	1236.271503	-358.338055	296.969137	1267.605296	-88.390089	114.002347	1341.962737	-171.135998	117.106265	1330.703499	-253.524803	229.631864	1243.380582	-14.260005	175.498726	1170.690311	-397.192212	348.662064	1142.965232	3.883188	432.048450	1117.088405	-3.151172	493.027592	1056.346063	-7.693671	447.707734	1145.749605	-21.547244	583.176100	962.902250	-34.875288	581.766683	946.730975	-163.242298	474.243644	836.873740	-17.356465	425.682854	764.949049	-36.986077	347.239081	724.622819	-36.909778	444.318243	748.617757	-62.737530	243.749257	643.169089	-56.351963	267.956646	646.408270	-146.086950	164.982480	640.914248	-94.025857	410.940106	454.505814	-128.540574	313.525476	508.974685	-47.829244	332.609234	512.102737	-162.146141	205.615634	1023.127350	-418.326857	241.821038	944.383861	-425.895832	277.819847	951.353868	-426.852543	236.116512	856.017361	-415.231688	280.934796	735.977271	-397.212852	297.131775	718.408562	-277.162082	215.516470	580.917860	-427.793514	219.672694	495.878081	-417.981262	178.325854	415.754925	-414.685525	254.629469	489.260114	-401.509757	144.360583	296.013343	-402.505943	209.786295	304.012255	-324.568126	77.906325	287.562286	-355.565462	334.614655	112.688808	-360.363472	256.422836	164.236779	-317.338391	220.596867	159.508041	-432.641349	-217.158628	944.666560	-234.716166	-11.911624	81.008798	-435.617661	-11.704372	81.095717	-35.260078	
